<svg xmlns="http://www.w3.org/2000/svg" viewBox="0 0 1180 610" width="100%" height="100%">
  <defs>
    <clipPath id="skills-clip">
      <rect x="530" y="390" width="550" height="75" />
    </clipPath>
    <!-- Gradients -->
    <linearGradient id="accent-grad" x1="0%" y1="0%" x2="100%" y2="100%">
      <stop offset="0%" stop-color="#7C3AED" />
      <stop offset="50%" stop-color="#22D3EE" />
      <stop offset="100%" stop-color="#10B981" />
    </linearGradient>

    <radialGradient id="bg-glow-1" cx="50%" cy="50%" r="50%">
      <stop offset="0%" stop-color="#7C3AED" stop-opacity="0.15" />
      <stop offset="100%" stop-color="#7C3AED" stop-opacity="0" />
    </radialGradient>

    <radialGradient id="bg-glow-2" cx="50%" cy="50%" r="50%">
      <stop offset="0%" stop-color="#22D3EE" stop-opacity="0.1" />
      <stop offset="100%" stop-color="#22D3EE" stop-opacity="0" />
    </radialGradient>

    <!-- Glowing Filters -->
    <filter id="glow" x="-20%" y="-20%" width="140%" height="140%">
      <feGaussianBlur stdDeviation="6" result="blur" />
      <feMerge>
        <feMergeNode in="blur" />
        <feMergeNode in="SourceGraphic" />
      </feMerge>
    </filter>

    <filter id="noise">
      <feTurbulence type="fractalNoise" baseFrequency="0.8" numOctaves="4" result="noise" />
      <feColorMatrix type="matrix" values="1 0 0 0 0  0 1 0 0 0  0 0 1 0 0  0 0 0 0.04 0" />
      <feBlend mode="overlay" in="SourceGraphic" in2="noise" />
    </filter>

    <!-- Typing Subtitle Clip Paths -->
    <clipPath id="clip-role1">
      <rect x="530" y="170" width="0" height="30">
        <animate attributeName="width" values="0; 160; 160; 0; 0; 0" keyTimes="0; 0.06; 0.14; 0.17; 0.20; 1" dur="20s" repeatCount="indefinite" />
      </rect>
    </clipPath>
    <clipPath id="clip-role2">
      <rect x="530" y="170" width="0" height="30">
        <animate attributeName="width" values="0; 0; 215; 215; 0; 0; 0" keyTimes="0; 0.20; 0.26; 0.34; 0.37; 0.40; 1" dur="20s" repeatCount="indefinite" />
      </rect>
    </clipPath>
    <clipPath id="clip-role3">
      <rect x="530" y="170" width="0" height="30">
        <animate attributeName="width" values="0; 0; 225; 225; 0; 0; 0" keyTimes="0; 0.40; 0.46; 0.54; 0.57; 0.60; 1" dur="20s" repeatCount="indefinite" />
      </rect>
    </clipPath>
    <clipPath id="clip-role4">
      <rect x="530" y="170" width="0" height="30">
        <animate attributeName="width" values="0; 0; 205; 205; 0; 0; 0" keyTimes="0; 0.60; 0.66; 0.74; 0.77; 0.80; 1" dur="20s" repeatCount="indefinite" />
      </rect>
    </clipPath>
    <clipPath id="clip-role5">
      <rect x="530" y="170" width="0" height="30">
        <animate attributeName="width" values="0; 0; 170; 170; 0; 0; 0" keyTimes="0; 0.80; 0.86; 0.94; 0.97; 0.99; 1" dur="20s" repeatCount="indefinite" />
      </rect>
    </clipPath>
    </defs>

  <!-- Background -->
  <rect width="1180" height="610" fill="#030712" />

  <!-- Animated Background Glows -->
  <circle cx="200" cy="150" r="300" fill="url(#bg-glow-1)">
    <animate attributeName="cx" values="200;280;200" dur="12s" repeatCount="indefinite"/>
    <animate attributeName="cy" values="150;90;150" dur="14s" repeatCount="indefinite"/>
  </circle>
  <circle cx="900" cy="450" r="400" fill="url(#bg-glow-2)">
    <animate attributeName="cx" values="900;820;900" dur="16s" repeatCount="indefinite"/>
    <animate attributeName="cy" values="450;510;450" dur="12s" repeatCount="indefinite"/>
  </circle>

  <!-- Noise Texture -->
  <rect width="1180" height="610" filter="url(#noise)" pointer-events="none" />

  <!-- Tiny Floating Particles -->
  <g opacity="0.4">
    <circle r="1.5" fill="#22D3EE">
      <animateMotion path="M 100,500 L 150,450 L 120,400 L 100,500" dur="25s" repeatCount="indefinite" />
    </circle>
    <circle r="2" fill="#7C3AED">
      <animateMotion path="M 800,100 L 730,170 L 770,220 L 800,100" dur="30s" repeatCount="indefinite" />
    </circle>
    <circle r="1" fill="#10B981">
      <animateMotion path="M 500,300 L 530,250 L 470,180 L 500,300" dur="20s" repeatCount="indefinite" />
    </circle>
    <circle r="1.5" fill="#22D3EE">
      <animateMotion path="M 300,200 L 330,140 L 270,90 L 300,200" dur="28s" repeatCount="indefinite" />
    </circle>
  </g>

  <!-- Moving Scanline -->
  <line x1="0" y1="0" x2="1180" y2="0" stroke="#7C3AED" stroke-width="1.5" opacity="0.04">
    <animate attributeName="y" values="0;610" dur="6s" repeatCount="indefinite" />
  </line>

  <!-- LEFT SIDE: Floating ASCII Terminal Panel -->
  <g>
    <animateTransform attributeName="transform" type="translate" values="0,0; 0,-8; 0,0" dur="6s" repeatCount="indefinite" />

    <!-- Glass Box Background -->
    <rect x="50" y="50" width="390" height="510" rx="16" fill="#0F172A" fill-opacity="0.75" stroke="rgba(255,255,255,0.08)" stroke-width="1.5" />
    
    <!-- Border Shimmer -->
    <rect x="50" y="50" width="390" height="510" rx="16" fill="none" stroke="url(#accent-grad)" stroke-width="1.5" stroke-dasharray="100 400" opacity="0.7">
      <animate attributeName="stroke-dashoffset" values="500;0" dur="7s" repeatCount="indefinite" />
    </rect>

    <!-- Terminal Title Header -->
    <circle cx="75" cy="75" r="5" fill="#ff5f56" />
    <circle cx="91" cy="75" r="5" fill="#ffbd2e" />
    <circle cx="107" cy="75" r="5" fill="#27c93f" />
    <text x="130" y="80" font-family="'Consolas', monospace" font-size="12" fill="#64748b" font-weight="bold">terminal@dargo:~$</text>

    <!-- Kali Linux Dragon Logo Vector -->
    <g opacity="0" transform="translate(155, 110) scale(7.5)">
      <animate attributeName="opacity" to="1" dur="0.8s" begin="0.3s" fill="freeze"/>
      <path d="M12.778 5.943s-1.97-.13-5.327.92c-3.42 1.07-5.36 2.587-5.36 2.587s5.098-2.847 10.852-3.008zm7.351 3.095l.257-.017s-1.468-1.78-4.278-2.648c1.58.642 2.954 1.493 4.021 2.665zm.42.74c.039-.068.166.217.263.337.004.024.01.039-.045.027-.005-.025-.013-.032-.013-.032s-.135-.08-.177-.137c-.041-.057-.049-.157-.028-.195zm3.448 8.479s.312-3.578-5.31-4.403a18.277 18.277 0 0 0-2.524-.187c-4.506.06-4.67-5.197-1.275-5.462 1.407-.116 3.087.643 4.73 1.408-.007.204.002.385.136.552.134.168.648.35.813.445.164.094.691.43 1.014.85.07-.131.654-.512.654-.512s-.14.003-.465-.119c-.326-.122-.713-.49-.722-.511-.01-.022-.015-.055.06-.07.059-.049-.072-.207-.13-.265-.058-.058-.445-.716-.454-.73-.009-.016-.012-.031-.04-.05-.085-.027-.46.04-.46.04s-.575-.283-.774-.893c.003.107-.099.224 0 .469-.3-.127-.558-.344-.762-.88-.12.305 0 .499 0 .499s-.707-.198-.82-.85c-.124.293 0 .469 0 .469s-1.153-.602-3.069-.61c-1.283-.118-1.55-2.374-1.43-2.754 0 0-1.85-.975-5.493-1.406-3.642-.43-6.628-.065-6.628-.065s6.45-.31 11.617 1.783c.176.785.704 2.094.989 2.723-.815.563-1.733 1.092-1.876 2.97-.143 1.878 1.472 3.53 3.474 3.58 1.9.102 3.214.116 4.806.942 1.52.84 2.766 3.4 2.89 5.703.132-1.709-.509-5.383-3.5-6.498 4.181.732 4.549 3.832 4.549 3.832zM12.68 5.663l-.15-.485s-2.484-.441-5.822-.204C3.37 5.211 0 6.38 0 6.38s6.896-1.735 12.68-.717Z" fill="url(#accent-grad)" filter="url(#glow)" />
    </g>

    <!-- Logo Titles -->
    <text x="245" y="325" font-family="-apple-system, BlinkMacSystemFont, 'Segoe UI', Roboto, sans-serif" font-size="26" font-weight="900" fill="url(#accent-grad)" text-anchor="middle" letter-spacing="1">DARGOTAMBER</text>
    <text x="245" y="350" font-family="-apple-system, BlinkMacSystemFont, 'Segoe UI', Roboto, sans-serif" font-size="11" font-weight="bold" fill="#64748b" text-anchor="middle" letter-spacing="3" opacity="0.8">OWNER OF DT EMPIRE</text>

    <!-- Terminal Operations Details (Reveals line-by-line) -->
    <g font-family="'Consolas', monospace" font-size="12" font-weight="bold" fill="#94A3B8">
      <text x="75" y="395" opacity="0"><animate attributeName="opacity" to="1" dur="0.1s" begin="1.4s" fill="freeze"/>[SYS] SHIELD ONLINE</text>
      <text x="75" y="420" opacity="0"><animate attributeName="opacity" to="1" dur="0.1s" begin="1.6s" fill="freeze"/>[NET] PORT 25570 EXPOSED</text>
      <text x="75" y="445" opacity="0"><animate attributeName="opacity" to="1" dur="0.1s" begin="1.8s" fill="freeze"/>[SEC] ANTI-CHEAT ENFORCED</text>
      
      <!-- Interactive Terminal Blinker -->
      <rect x="75" y="455" width="8" height="14" fill="#10B981" opacity="0">
        <animate attributeName="opacity" values="1;0;1" dur="1s" repeatCount="indefinite" begin="2.0s" />
      </rect>
    </g>

    <!-- Mini Radar sweeping inside left HUD -->
    <g transform="translate(320, 480)" opacity="0.3">
      <circle r="12" fill="none" stroke="#22D3EE" stroke-width="0.5" stroke-dasharray="1 1" />
      <circle r="25" fill="none" stroke="#22D3EE" stroke-width="0.5" />
      <circle r="38" fill="none" stroke="#22D3EE" stroke-width="0.5" stroke-dasharray="3 2" />
      <line x1="-42" y1="0" x2="42" y2="0" stroke="#22D3EE" stroke-width="0.5" />
      <line x1="0" y1="-42" x2="0" y2="42" stroke="#22D3EE" stroke-width="0.5" />
      <g>
        <line x1="0" y1="0" x2="38" y2="0" stroke="#22D3EE" stroke-width="1.5" />
        <animateTransform attributeName="transform" type="rotate" from="0" to="360" dur="4s" repeatCount="indefinite" />
      </g>
    </g>
  </g>

  <!-- RIGHT SIDE: Main Profile dashboard Panel -->
  <g>
    <!-- Glass Box Background -->
    <rect x="480" y="50" width="650" height="510" rx="16" fill="#0F172A" fill-opacity="0.8" stroke="rgba(255,255,255,0.08)" stroke-width="1.5" />

    <!-- Border Shimmer -->
    <rect x="480" y="50" width="650" height="510" rx="16" fill="none" stroke="url(#accent-grad)" stroke-width="1.5" stroke-dasharray="150 500" opacity="0.7">
      <animate attributeName="stroke-dashoffset" values="0;650" dur="8s" repeatCount="indefinite" />
    </rect>

    <!-- Greeting details -->
    <text x="530" y="110" font-family="-apple-system, BlinkMacSystemFont, 'Segoe UI', Roboto, sans-serif" font-size="22" fill="#94A3B8" font-weight="500">Hi 👋</text>
    <text x="530" y="150" font-family="-apple-system, BlinkMacSystemFont, 'Segoe UI', Roboto, sans-serif" font-size="34" fill="#F8FAFC" font-weight="800">I'm Ankit Gupta</text>

    <!-- Animated Role text -->
    <text x="530" y="188" font-family="'Consolas', 'Courier New', monospace" font-size="18" fill="#22D3EE" font-weight="bold">> </text>

    <!-- Typing groups -->
    <!-- Title 1: Ethical Hacker -->
    <g>
      <text x="552" y="188" font-family="'Consolas', 'Courier New', monospace" font-size="18" fill="#7C3AED" font-weight="bold" clip-path="url(#clip-role1)">Ethical Hacker</text>
      <rect y="172" width="2" height="18" fill="#7C3AED">
        <animate attributeName="x" values="552; 712; 712; 552; 552; 552" keyTimes="0; 0.06; 0.14; 0.17; 0.20; 1" dur="20s" repeatCount="indefinite" />
        <animate attributeName="opacity" values="1;0;1;0;1;0;1;0" dur="1s" repeatCount="indefinite" />
      </rect>
      <animate attributeName="visibility" values="visible;visible;hidden;hidden" keyTimes="0; 0.19; 0.20; 1" dur="20s" repeatCount="indefinite" />
    </g>

    <!-- Title 2: Security Researcher -->
    <g>
      <text x="552" y="188" font-family="'Consolas', 'Courier New', monospace" font-size="18" fill="#22D3EE" font-weight="bold" clip-path="url(#clip-role2)">Security Researcher</text>
      <rect y="172" width="2" height="18" fill="#22D3EE">
        <animate attributeName="x" values="552; 552; 767; 767; 552; 552; 552" keyTimes="0; 0.20; 0.26; 0.34; 0.37; 0.40; 1" dur="20s" repeatCount="indefinite" />
        <animate attributeName="opacity" values="1;0;1;0;1;0;1;0" dur="1s" repeatCount="indefinite" />
      </rect>
      <animate attributeName="visibility" values="hidden;hidden;visible;visible;hidden;hidden" keyTimes="0; 0.19; 0.20; 0.39; 0.40; 1" dur="20s" repeatCount="indefinite" />
    </g>

    <!-- Title 3: Full Stack Developer -->
    <g>
      <text x="552" y="188" font-family="'Consolas', 'Courier New', monospace" font-size="18" fill="#10B981" font-weight="bold" clip-path="url(#clip-role3)">Full Stack Developer</text>
      <rect y="172" width="2" height="18" fill="#10B981">
        <animate attributeName="x" values="552; 552; 777; 777; 552; 552; 552" keyTimes="0; 0.40; 0.46; 0.54; 0.57; 0.60; 1" dur="20s" repeatCount="indefinite" />
        <animate attributeName="opacity" values="1;0;1;0;1;0;1;0" dur="1s" repeatCount="indefinite" />
      </rect>
      <animate attributeName="visibility" values="hidden;hidden;visible;visible;hidden;hidden" keyTimes="0; 0.39; 0.40; 0.59; 0.60; 1" dur="20s" repeatCount="indefinite" />
    </g>

    <!-- Title 4: DevSecOps Engineer -->
    <g>
      <text x="552" y="188" font-family="'Consolas', 'Courier New', monospace" font-size="18" fill="#7C3AED" font-weight="bold" clip-path="url(#clip-role4)">DevSecOps Engineer</text>
      <rect y="172" width="2" height="18" fill="#7C3AED">
        <animate attributeName="x" values="552; 552; 757; 757; 552; 552; 552" keyTimes="0; 0.60; 0.66; 0.74; 0.77; 0.80; 1" dur="20s" repeatCount="indefinite" />
        <animate attributeName="opacity" values="1;0;1;0;1;0;1;0" dur="1s" repeatCount="indefinite" />
      </rect>
      <animate attributeName="visibility" values="hidden;hidden;visible;visible;hidden;hidden" keyTimes="0; 0.59; 0.60; 0.79; 0.80; 1" dur="20s" repeatCount="indefinite" />
    </g>

    <!-- Title 5: Malware Analyst -->
    <g>
      <text x="552" y="188" font-family="'Consolas', 'Courier New', monospace" font-size="18" fill="#22D3EE" font-weight="bold" clip-path="url(#clip-role5)">Malware Analyst</text>
      <rect y="172" width="2" height="18" fill="#22D3EE">
        <animate attributeName="x" values="552; 552; 722; 722; 552; 552; 552" keyTimes="0; 0.80; 0.86; 0.94; 0.97; 0.99; 1" dur="20s" repeatCount="indefinite" />
        <animate attributeName="opacity" values="1;0;1;0;1;0;1;0" dur="1s" repeatCount="indefinite" />
      </rect>
      <animate attributeName="visibility" values="hidden;hidden;visible;visible;hidden;hidden" keyTimes="0; 0.79; 0.80; 0.99; 1; 1" dur="20s" repeatCount="indefinite" />
    </g>
    <!-- Info details (Fade-in Sequentially) -->
    <g font-family="-apple-system, BlinkMacSystemFont, 'Segoe UI', Roboto, sans-serif" font-size="14" fill="#94A3B8">
      <!-- Location -->
      <g opacity="0">
        <animate attributeName="opacity" to="1" dur="0.4s" begin="2.0s" fill="freeze" />
        <text x="530" y="235">📍 Location: Kathmandu, Nepal</text>
      </g>
      <!-- Education -->
      <g opacity="0">
        <animate attributeName="opacity" to="1" dur="0.4s" begin="2.2s" fill="freeze" />
        <text x="530" y="260">🎓 Education: BSc in CS &amp; Security</text>
      </g>
      <!-- Focus -->
      <g opacity="0">
        <animate attributeName="opacity" to="1" dur="0.4s" begin="2.4s" fill="freeze" />
        <text x="530" y="285">🛡️ Current Focus: Cyber Defense &amp; Automation</text>
      </g>
      <!-- Portfolio -->
      <g opacity="0">
        <animate attributeName="opacity" to="1" dur="0.4s" begin="2.6s" fill="freeze" />
        <text x="530" y="310">🌐 Portfolio: <tspan fill="#22D3EE" font-weight="bold">ankitgupta.com.np</tspan></text>
      </g>
      <!-- Email -->
      <g opacity="0">
        <animate attributeName="opacity" to="1" dur="0.4s" begin="2.8s" fill="freeze" />
        <text x="530" y="335">✉️ Contact: <tspan fill="#22D3EE" font-weight="bold">email@ankitgupta.com.np</tspan></text>
      </g>
    </g>

    <g opacity="0">
      <animate attributeName="opacity" to="1" dur="0.5s" begin="3.0s" fill="freeze" />
      <text x="530" y="380" font-family="-apple-system, BlinkMacSystemFont, 'Segoe UI', Roboto, sans-serif" font-size="14" fill="#F8FAFC" font-weight="bold">Arsenal &amp; Modules</text>

      <g clip-path="url(#skills-clip)">
        <!-- Row 1: Hacking Tools (Scrolls Left) -->
        <g transform="translate(530, 395)">
          <g>
            <animateTransform attributeName="transform" type="translate" from="0, 0" to="-765, 0" dur="25s" repeatCount="indefinite" />
            
            <!-- Loop 1 -->
            <g font-family="-apple-system, BlinkMacSystemFont, 'Segoe UI', Roboto, sans-serif" font-size="11" font-weight="bold" fill="#F8FAFC" text-anchor="middle">
              <g transform="translate(0, 0)">
                <rect width="60" height="24" rx="12" fill="#7C3AED" fill-opacity="0.15" stroke="#7C3AED" stroke-width="1"/>
                <text x="30" y="15">Nmap</text>
              </g>
              <g transform="translate(75, 0)">
                <rect width="60" height="24" rx="12" fill="#22D3EE" fill-opacity="0.15" stroke="#22D3EE" stroke-width="1"/>
                <text x="30" y="15">Burp</text>
              </g>
              <g transform="translate(150, 0)">
                <rect width="85" height="24" rx="12" fill="#10B981" fill-opacity="0.15" stroke="#10B981" stroke-width="1"/>
                <text x="42.5" y="15">Wireshark</text>
              </g>
              <g transform="translate(250, 0)">
                <rect width="90" height="24" rx="12" fill="#7C3AED" fill-opacity="0.15" stroke="#7C3AED" stroke-width="1"/>
                <text x="45" y="15">Metasploit</text>
              </g>
              <g transform="translate(355, 0)">
                <rect width="70" height="24" rx="12" fill="#22D3EE" fill-opacity="0.15" stroke="#22D3EE" stroke-width="1"/>
                <text x="35" y="15">SQLmap</text>
              </g>
              <g transform="translate(440, 0)">
                <rect width="75" height="24" rx="12" fill="#10B981" fill-opacity="0.15" stroke="#10B981" stroke-width="1"/>
                <text x="37.5" y="15">Hashcat</text>
              </g>
              <g transform="translate(530, 0)">
                <rect width="70" height="24" rx="12" fill="#22D3EE" fill-opacity="0.15" stroke="#22D3EE" stroke-width="1"/>
                <text x="35" y="15">Ghidra</text>
              </g>
              <g transform="translate(615, 0)">
                <rect width="55" height="24" rx="12" fill="#7C3AED" fill-opacity="0.15" stroke="#7C3AED" stroke-width="1"/>
                <text x="27.5" y="15">John</text>
              </g>
              <g transform="translate(685, 0)">
                <rect width="65" height="24" rx="12" fill="#10B981" fill-opacity="0.15" stroke="#10B981" stroke-width="1"/>
                <text x="32.5" y="15">Hydra</text>
              </g>
            </g>

            <!-- Loop 2 -->
            <g transform="translate(765, 0)" font-family="-apple-system, BlinkMacSystemFont, 'Segoe UI', Roboto, sans-serif" font-size="11" font-weight="bold" fill="#F8FAFC" text-anchor="middle">
              <g transform="translate(0, 0)">
                <rect width="60" height="24" rx="12" fill="#7C3AED" fill-opacity="0.15" stroke="#7C3AED" stroke-width="1"/>
                <text x="30" y="15">Nmap</text>
              </g>
              <g transform="translate(75, 0)">
                <rect width="60" height="24" rx="12" fill="#22D3EE" fill-opacity="0.15" stroke="#22D3EE" stroke-width="1"/>
                <text x="30" y="15">Burp</text>
              </g>
              <g transform="translate(150, 0)">
                <rect width="85" height="24" rx="12" fill="#10B981" fill-opacity="0.15" stroke="#10B981" stroke-width="1"/>
                <text x="42.5" y="15">Wireshark</text>
              </g>
              <g transform="translate(250, 0)">
                <rect width="90" height="24" rx="12" fill="#7C3AED" fill-opacity="0.15" stroke="#7C3AED" stroke-width="1"/>
                <text x="45" y="15">Metasploit</text>
              </g>
              <g transform="translate(355, 0)">
                <rect width="70" height="24" rx="12" fill="#22D3EE" fill-opacity="0.15" stroke="#22D3EE" stroke-width="1"/>
                <text x="35" y="15">SQLmap</text>
              </g>
              <g transform="translate(440, 0)">
                <rect width="75" height="24" rx="12" fill="#10B981" fill-opacity="0.15" stroke="#10B981" stroke-width="1"/>
                <text x="37.5" y="15">Hashcat</text>
              </g>
              <g transform="translate(530, 0)">
                <rect width="70" height="24" rx="12" fill="#22D3EE" fill-opacity="0.15" stroke="#22D3EE" stroke-width="1"/>
                <text x="35" y="15">Ghidra</text>
              </g>
              <g transform="translate(615, 0)">
                <rect width="55" height="24" rx="12" fill="#7C3AED" fill-opacity="0.15" stroke="#7C3AED" stroke-width="1"/>
                <text x="27.5" y="15">John</text>
              </g>
              <g transform="translate(685, 0)">
                <rect width="65" height="24" rx="12" fill="#10B981" fill-opacity="0.15" stroke="#10B981" stroke-width="1"/>
                <text x="32.5" y="15">Hydra</text>
              </g>
            </g>
          </g>
        </g>

        <!-- Row 2: DevOps & Fullstack (Scrolls Right) -->
        <g transform="translate(530, 428)">
          <g>
            <animateTransform attributeName="transform" type="translate" from="-720, 0" to="0, 0" dur="25s" repeatCount="indefinite" />
            
            <!-- Loop 1 -->
            <g font-family="-apple-system, BlinkMacSystemFont, 'Segoe UI', Roboto, sans-serif" font-size="11" font-weight="bold" fill="#F8FAFC" text-anchor="middle">
              <g transform="translate(0, 0)">
                <rect width="65" height="24" rx="12" fill="#10B981" fill-opacity="0.15" stroke="#10B981" stroke-width="1"/>
                <text x="32.5" y="15">Python</text>
              </g>
              <g transform="translate(80, 0)">
                <rect width="60" height="24" rx="12" fill="#7C3AED" fill-opacity="0.15" stroke="#7C3AED" stroke-width="1"/>
                <text x="30" y="15">React</text>
              </g>
              <g transform="translate(155, 0)">
                <rect width="70" height="24" rx="12" fill="#22D3EE" fill-opacity="0.15" stroke="#22D3EE" stroke-width="1"/>
                <text x="35" y="15">Next.js</text>
              </g>
              <g transform="translate(240, 0)">
                <rect width="70" height="24" rx="12" fill="#10B981" fill-opacity="0.15" stroke="#10B981" stroke-width="1"/>
                <text x="35" y="15">Node.js</text>
              </g>
              <g transform="translate(325, 0)">
                <rect width="70" height="24" rx="12" fill="#22D3EE" fill-opacity="0.15" stroke="#22D3EE" stroke-width="1"/>
                <text x="35" y="15">Docker</text>
              </g>
              <g transform="translate(410, 0)">
                <rect width="80" height="24" rx="12" fill="#7C3AED" fill-opacity="0.15" stroke="#7C3AED" stroke-width="1"/>
                <text x="40" y="15">Postgres</text>
              </g>
              <g transform="translate(505, 0)">
                <rect width="65" height="24" rx="12" fill="#7C3AED" fill-opacity="0.15" stroke="#7C3AED" stroke-width="1"/>
                <text x="32.5" y="15">Linux</text>
              </g>
              <g transform="translate(585, 0)">
                <rect width="55" height="24" rx="12" fill="#10B981" fill-opacity="0.15" stroke="#10B981" stroke-width="1"/>
                <text x="27.5" y="15">AWS</text>
              </g>
              <g transform="translate(655, 0)">
                <rect width="50" height="24" rx="12" fill="#10B981" fill-opacity="0.15" stroke="#10B981" stroke-width="1"/>
                <text x="25" y="15">Git</text>
              </g>
            </g>

            <!-- Loop 2 -->
            <g transform="translate(720, 0)" font-family="-apple-system, BlinkMacSystemFont, 'Segoe UI', Roboto, sans-serif" font-size="11" font-weight="bold" fill="#F8FAFC" text-anchor="middle">
              <g transform="translate(0, 0)">
                <rect width="65" height="24" rx="12" fill="#10B981" fill-opacity="0.15" stroke="#10B981" stroke-width="1"/>
                <text x="32.5" y="15">Python</text>
              </g>
              <g transform="translate(80, 0)">
                <rect width="60" height="24" rx="12" fill="#7C3AED" fill-opacity="0.15" stroke="#7C3AED" stroke-width="1"/>
                <text x="30" y="15">React</text>
              </g>
              <g transform="translate(155, 0)">
                <rect width="70" height="24" rx="12" fill="#22D3EE" fill-opacity="0.15" stroke="#22D3EE" stroke-width="1"/>
                <text x="35" y="15">Next.js</text>
              </g>
              <g transform="translate(240, 0)">
                <rect width="70" height="24" rx="12" fill="#10B981" fill-opacity="0.15" stroke="#10B981" stroke-width="1"/>
                <text x="35" y="15">Node.js</text>
              </g>
              <g transform="translate(325, 0)">
                <rect width="70" height="24" rx="12" fill="#22D3EE" fill-opacity="0.15" stroke="#22D3EE" stroke-width="1"/>
                <text x="35" y="15">Docker</text>
              </g>
              <g transform="translate(410, 0)">
                <rect width="80" height="24" rx="12" fill="#7C3AED" fill-opacity="0.15" stroke="#7C3AED" stroke-width="1"/>
                <text x="40" y="15">Postgres</text>
              </g>
              <g transform="translate(505, 0)">
                <rect width="65" height="24" rx="12" fill="#7C3AED" fill-opacity="0.15" stroke="#7C3AED" stroke-width="1"/>
                <text x="32.5" y="15">Linux</text>
              </g>
              <g transform="translate(585, 0)">
                <rect width="55" height="24" rx="12" fill="#10B981" fill-opacity="0.15" stroke="#10B981" stroke-width="1"/>
                <text x="27.5" y="15">AWS</text>
              </g>
              <g transform="translate(655, 0)">
                <rect width="50" height="24" rx="12" fill="#10B981" fill-opacity="0.15" stroke="#10B981" stroke-width="1"/>
                <text x="25" y="15">Git</text>
              </g>
            </g>
          </g>
        </g>
      </g>
    </g>
    <!-- SOCIAL ICONS SECTION (Centered, Mathematically Perfect) -->
    <g opacity="0">
      <animate attributeName="opacity" to="1" dur="0.5s" begin="3.5s" fill="freeze" />
      
      <!-- GitHub (x=530) -->
      <g transform="translate(530, 485)" filter="url(#glow)">
        <a href="https://github.com/hyperdargo" target="_parent">
          <circle cx="15" cy="15" r="15" fill="#7C3AED" fill-opacity="0.2" stroke="#7C3AED" stroke-width="1.2"/>
          <g transform="translate(6, 6)">
            <path d="M12 2C6.477 2 2 6.477 2 12c0 4.42 2.865 8.166 6.839 9.489.5.092.682-.217.682-.482 0-.237-.008-.866-.013-1.7-2.782.603-3.369-1.34-3.369-1.34-.454-1.156-1.11-1.462-1.11-1.462-.908-.62.069-.608.069-.608 1.003.07 1.531 1.03 1.531 1.03.892 1.529 2.341 1.087 2.91.831.092-.646.35-1.086.636-1.336-2.22-.253-4.555-1.11-4.555-4.943 0-1.091.39-1.984 1.029-2.683-.103-.253-.446-1.27.098-2.647 0 0 .84-.269 2.75 1.025A9.564 9.564 0 0112 6.844c.85.004 1.705.115 2.504.337 1.909-1.294 2.747-1.025 2.747-1.025.546 1.377.203 2.394.1 2.647.64.699 1.028 1.592 1.028 2.683 0 3.842-2.339 4.687-4.566 4.935.359.309.678.919.678 1.852 0 1.336-.012 2.415-.012 2.743 0 .267.18.579.688.481C19.137 20.162 22 16.418 22 12c0-5.523-4.477-10-10-10z" fill="#F8FAFC" transform="scale(0.75)"/>
          </g>
        </a>
      </g>

      <!-- LinkedIn (x=575) -->
      <g transform="translate(575, 485)" filter="url(#glow)">
        <a href="https://linkedin.com" target="_parent">
          <circle cx="15" cy="15" r="15" fill="#22D3EE" fill-opacity="0.2" stroke="#22D3EE" stroke-width="1.2"/>
          <g transform="translate(6, 6)">
            <path d="M22.23 0H1.77C.8 0 0 .77 0 1.72v20.56C0 23.23.8 24 1.77 24h20.46c.98 0 1.77-.77 1.77-1.72V1.72C24 .77 23.2 0 22.23 0zM7.12 20.45H3.56V9H7.12v11.45zM5.34 7.43c-1.14 0-2.06-.92-2.06-2.06 0-1.14.92-2.06 2.06-2.06 1.14 0 2.06.92 2.06 2.06 0 1.14-.92 2.06-2.06 2.06zm15.11 13.02h-3.56v-5.6c0-1.34-.03-3.05-1.86-3.05-1.86 0-2.14 1.45-2.14 2.95v5.7H9.33V9h3.42v1.56h.05c.48-.9 1.64-1.85 3.37-1.85 3.6 0 4.27 2.37 4.27 5.45v6.29z" fill="#F8FAFC" transform="scale(0.75)"/>
          </g>
        </a>
      </g>

      <!-- Twitter (x=620) -->
      <g transform="translate(620, 485)" filter="url(#glow)">
        <a href="https://twitter.com/dargotamber_yt" target="_parent">
          <circle cx="15" cy="15" r="15" fill="#10B981" fill-opacity="0.2" stroke="#10B981" stroke-width="1.2"/>
          <g transform="translate(6, 6)">
            <path d="M18.244 2.25h3.308l-7.227 8.26 8.502 11.24H16.17l-5.214-6.817L4.99 21.75H1.68l7.73-8.835L1.254 2.25H8.08l4.713 6.231zm-1.161 17.52h1.833L7.084 4.126H5.117z" fill="#F8FAFC" transform="scale(0.75)"/>
          </g>
        </a>
      </g>

      <!-- Portfolio (x=665) -->
      <g transform="translate(665, 485)" filter="url(#glow)">
        <a href="https://ankitgupta.com.np" target="_parent">
          <circle cx="15" cy="15" r="15" fill="#7C3AED" fill-opacity="0.2" stroke="#7C3AED" stroke-width="1.2"/>
          <g transform="translate(6, 6)">
            <path d="M12 2C6.48 2 2 6.48 2 12s4.48 10 10 10 10-4.48 10-10S17.52 2 12 2zm-1 17.93c-3.95-.49-7-3.85-7-7.93 0-.62.08-1.21.21-1.79L9 15v1c0 1.1.9 2 2 2v1.93zm6.9-2.53c-.26-.81-1-1.4-1.9-1.4h-1v-3c0-.55-.45-1-1-1h-6v-2h2c.55 0 1-.45 1-1V7h2c1.1 0 2-.9 2-2v-.41c2.93 1.19 5 4.06 5 7.41 0 2.08-.8 3.97-2.1 5.39z" fill="#F8FAFC" transform="scale(0.75)"/>
          </g>
        </a>
      </g>
    </g>

  </g>

</svg>
